<mxfile host="65bd71144e">
    <diagram id="lRSSUsi64icud2v2-DGA" name="Page-1">
        <mxGraphModel dx="532" dy="652" grid="1" gridSize="10" guides="1" tooltips="1" connect="1" arrows="1" fold="1" page="1" pageScale="1" pageWidth="850" pageHeight="1100" math="0" shadow="0">
            <root>
                <mxCell id="0"/>
                <mxCell id="1" parent="0"/>
                <mxCell id="3" value="" style="rounded=0;whiteSpace=wrap;html=1;fillColor=none;dashed=1;" vertex="1" parent="1">
                    <mxGeometry x="30" y="20" width="780" height="1040" as="geometry"/>
                </mxCell>
                <mxCell id="5" value="" style="rounded=1;whiteSpace=wrap;html=1;dashed=1;fillColor=none;" vertex="1" parent="1">
                    <mxGeometry x="40" y="40" width="740" height="60" as="geometry"/>
                </mxCell>
                <mxCell id="8" value="Logo" style="rounded=1;whiteSpace=wrap;html=1;dashed=1;fillColor=none;" vertex="1" parent="1">
                    <mxGeometry x="45" y="45" width="115" height="50" as="geometry"/>
                </mxCell>
                <mxCell id="9" value="Meny" style="rounded=1;whiteSpace=wrap;html=1;dashed=1;fillColor=none;" vertex="1" parent="1">
                    <mxGeometry x="165" y="45" width="45" height="50" as="geometry"/>
                </mxCell>
                <mxCell id="10" value="SÃ¸k" style="rounded=1;whiteSpace=wrap;html=1;dashed=1;fillColor=none;" vertex="1" parent="1">
                    <mxGeometry x="215" y="45" width="45" height="50" as="geometry"/>
                </mxCell>
                <mxCell id="11" value="Logg Inn" style="rounded=1;whiteSpace=wrap;html=1;dashed=1;fillColor=none;" vertex="1" parent="1">
                    <mxGeometry x="710" y="45" width="60" height="50" as="geometry"/>
                </mxCell>
                <mxCell id="12" value="" style="rounded=1;whiteSpace=wrap;html=1;dashed=1;fillColor=none;arcSize=3;" vertex="1" parent="1">
                    <mxGeometry x="45" y="110" width="740" height="280" as="geometry"/>
                </mxCell>
                <mxCell id="13" value="" style="rounded=1;whiteSpace=wrap;html=1;dashed=1;fillColor=none;arcSize=16;" vertex="1" parent="1">
                    <mxGeometry x="55" y="120" width="225" height="240" as="geometry"/>
                </mxCell>
                <mxCell id="14" value="Simpel Meny med&amp;nbsp;" style="text;html=1;strokeColor=none;fillColor=none;align=center;verticalAlign=middle;whiteSpace=wrap;rounded=0;dashed=1;" vertex="1" parent="1">
                    <mxGeometry x="105" y="160" width="125" height="30" as="geometry"/>
                </mxCell>
                <mxCell id="15" value="" style="rounded=1;whiteSpace=wrap;html=1;dashed=1;fillColor=none;" vertex="1" parent="1">
                    <mxGeometry x="70" y="230" width="200" height="30" as="geometry"/>
                </mxCell>
                <mxCell id="16" value="" style="rounded=1;whiteSpace=wrap;html=1;dashed=1;fillColor=none;" vertex="1" parent="1">
                    <mxGeometry x="70" y="265" width="200" height="30" as="geometry"/>
                </mxCell>
                <mxCell id="17" value="" style="rounded=1;whiteSpace=wrap;html=1;dashed=1;fillColor=none;" vertex="1" parent="1">
                    <mxGeometry x="70" y="305" width="200" height="30" as="geometry"/>
                </mxCell>
                <mxCell id="18" value="" style="rounded=1;whiteSpace=wrap;html=1;dashed=1;fillColor=none;arcSize=16;" vertex="1" parent="1">
                    <mxGeometry x="340" y="180" width="270" height="185" as="geometry"/>
                </mxCell>
            </root>
        </mxGraphModel>
    </diagram>
</mxfile>